<svg id="Layer_1" data-name="Layer 1" xmlns="http://www.w3.org/2000/svg" viewBox="0 0 275 110"><defs><style>.cls-1{fill:#436d33;}.cls-2{fill:#a02b22;}.cls-3{fill:#333132;}</style></defs><path class="cls-1" d="M119.7629,40.47c1.69.3821,3.1121,1.6936,4.8031,2.05a8.4739,8.4739,0,0,0-3.4977-2.0614,10.9929,10.9929,0,0,0-3.59-.7555,3.7372,3.7372,0,0,0-1.9065.2882c.7782.4251,1.63.0333,2.4393.2219C118.59,40.3368,119.1776,40.3873,119.7629,40.47Zm-2.0643.4791a10.497,10.497,0,0,0-3.8258.9506,7.943,7.943,0,0,0-2.5487,2.0295,7.4445,7.4445,0,0,0,1.9778-1.2672,9.5341,9.5341,0,0,1,3.8017-1.143c.82-.0711,1.6173-.3443,2.4418-.3411a4.1426,4.1426,0,0,0,1.2186-.1016A5.4745,5.4745,0,0,0,117.6986,40.9491Zm5.0926,2.01a6.726,6.726,0,0,0,1.9245.6436,2.3524,2.3524,0,0,0-1.0853-.8062c-1.1563-.367-2.1671-1.6571-3.45-1.1683A17.7289,17.7289,0,0,0,122.7912,42.9591Zm-13.2967,2.8575c1.0036-1.2666,1.86-2.7757,3.1978-3.606a8.2946,8.2946,0,0,1,3.8017-1.4375,4.6485,4.6485,0,0,0,1.3618-.2629,8.1153,8.1153,0,0,0-2.1095-.08,3.589,3.589,0,0,0-1.7917.4431,13.2393,13.2393,0,0,0-2.3432,1.69,20.4643,20.4643,0,0,0-2.0025,2.4312,6.027,6.027,0,0,0-.86,1.4625A2.8649,2.8649,0,0,0,109.4945,45.8166Zm9.6863-4.3631c-.079.3631.6345.6419.6546.2138C119.727,41.42,119.3771,41.2533,119.1808,41.4535Zm-7.5991,3.114a10.5506,10.5506,0,0,1,6.1224-2.2586,9.9009,9.9009,0,0,1,5.1656,1.8152c.5927.3236,1.294.7672,1.9463.3928-.5072-.3258-1.0767-.4731-1.6036-.7434a11.2264,11.2264,0,0,0-4.3026-1.8258,9.0938,9.0938,0,0,0-3.8961.31,9.3492,9.3492,0,0,0-2.6822,1.4064,6.1,6.1,0,0,0-1.7005,1.2383,11.0359,11.0359,0,0,0-1.4418,2.0737A12.3059,12.3059,0,0,0,107.95,49.59a1.6764,1.6764,0,0,0,.638-.6078C109.4805,47.4353,110.1481,45.5614,111.5817,44.5675Zm10.653.1483a18.2893,18.2893,0,0,0,2.87,1.9835,3.6436,3.6436,0,0,0-1.0747-1.1348c.3221-.0032.6434-.0045.9655-.0121A4.5691,4.5691,0,0,0,122.2347,44.7158Zm-6.6063-.7227a10.381,10.381,0,0,1,4.3222-.1646c.8132.0435,1.459.79,2.2681.7711-.0576-.2718-.1393-.5684-.4018-.6516a19.98,19.98,0,0,0-2.7305-1.0892c.0454.1509.138.4537.1834.6048a8.049,8.049,0,0,0-5.9282,1.062,8.3485,8.3485,0,0,0-2.5558,2.4449,17.8559,17.8559,0,0,0-1.59,3.1713,1.7946,1.7946,0,0,0-.0335.8131,24.6334,24.6334,0,0,1,2.642-4.6916A8.06,8.06,0,0,1,115.6284,43.9931Zm-3.6258,1.19a20.0376,20.0376,0,0,1,2.1516-1.4734,6.727,6.727,0,0,1,2.2643-.5655,10.1214,10.1214,0,0,0,2.422-.29,1.9836,1.9836,0,0,0-1.0222-.2346,8.6647,8.6647,0,0,0-4.4312,1.1779,14.26,14.26,0,0,0-2.2359,1.5635,16.2174,16.2174,0,0,0-1.8924,3.0275,4.6158,4.6158,0,0,0-.9281,2.9008c.6322-.3858.5019-1.4377.8747-2.0723C110.0163,47.7753,110.7292,46.1571,112.0026,45.1831Zm11.5492,1.0383a8.3873,8.3873,0,0,0-8.1779-1.8094,2.3935,2.3935,0,0,0-1.1987,1.115c.6655-.0522,1.1566-.6169,1.7548-.8727a7.2662,7.2662,0,0,1,5.4407.7721c1.2752.5578,2.37,1.5278,3.6069,2.1753C124.96,46.737,124.0051,46.6971,123.5518,46.2214Zm-7.959-.6041a5.2358,5.2358,0,0,1,4.15.0246c1.84.604,3.3809,1.97,4.9752,3.1433.0983-.0776.297-.2339.3968-.3107a17.2671,17.2671,0,0,0-2.5295-1.8533,21.3173,21.3173,0,0,0-2.637-1.4865,6.35,6.35,0,0,0-3.2952-.301,7.5282,7.5282,0,0,0-2.9195,1.554c-.0864-.0048-.2568-.0153-.3407-.0209.2545-.2426.5091-.4852.75-.7448a2.5957,2.5957,0,0,0-1.7241,1.2986c.1553-.0674.4675-.2011.6228-.2685l.2819-.3206c.0225.1824.0443.3622.0668.5446C114.1753,46.5824,114.8123,45.9271,115.5928,45.6173Zm2.966-.019a5.19,5.19,0,0,0-4.1211,1.0673c1.1895-.2231,2.3685-.807,3.5993-.6384a6.7433,6.7433,0,0,1,2.741,1.1643c.9816.7157,2.01,1.3378,2.9746,2.0857.4907.2607.9733.8893,1.5447.5291C123.1491,48.2224,121.0832,46.3,118.5588,45.5983Zm-6.2629.7054a5.6228,5.6228,0,0,0,2.0006-1.4616C113.4528,44.8749,112.8178,45.6161,112.2959,46.3037Zm1.9076,1.1138a9.0218,9.0218,0,0,0-1.87,2.5135,10.3643,10.3643,0,0,0,1.7835-1.8737c.4919-.5577,1.1119-.9237,1.6239-1.4518A2.2274,2.2274,0,0,0,114.2035,47.4175ZM108.5463,45.91c.4386-.7219,1.0119-1.3178,1.43-2.06-.2253.0921-.5.1-.6742.3172a7.5145,7.5145,0,0,0-1.6962,2.805A3.203,3.203,0,0,0,108.5463,45.91Zm1.91,7.3186a16.2487,16.2487,0,0,0,1.2509-2.7876A9.4161,9.4161,0,0,1,114.534,46.81l-.0963-.1444-.0629-.0962A10.1023,10.1023,0,0,0,110.4568,53.2287Zm.5336-4.5524a9.4287,9.4287,0,0,0,1.3208-2.2321,2.6344,2.6344,0,0,0-.7846.718,13.4952,13.4952,0,0,0-2.22,5.0513c-.2495,1.0733-.6841,2.2572-.203,3.3336.2524-1.38.3569-2.8038.7429-4.1493C110.2021,50.4768,110.5564,49.55,110.99,48.6763Zm-.231,1.5235c.9432-.7478,1.2874-2.1307,2.2205-2.9045l-.5189-.2076A9.5,9.5,0,0,0,110.7594,50.2Zm-2.9108-2.4129c-.2574.7386-1.0662,1.396-.611,2.2433.5583-1.1,1.0464-2.2418,1.6667-3.2972C108.2821,46.3792,108.0589,47.3092,107.8486,47.7869Zm-1.245,1.3964c.3886-.69.8075-1.3611,1.1312-2.0975A2.1654,2.1654,0,0,0,106.6036,49.1833Zm4.1865.994a7.7666,7.7666,0,0,0-1.0662,3.34,25.5148,25.5148,0,0,0-.3686,2.904c.9172-1.1442.3607-2.7992.9319-4.0969A4.4171,4.4171,0,0,0,110.79,50.1773Zm-2.7423.2161q.3069-.3567-.134-.4449Q107.6071,50.305,108.0478,50.3934ZM106.9783,51a1.1728,1.1728,0,0,0,.4541-1.1481A1.7211,1.7211,0,0,0,106.9783,51ZM108.9277,52.3a9.2054,9.2054,0,0,0,.3723-1.19C108.73,51.1585,108.6325,51.8414,108.9277,52.3Zm-1.3446-1.6261c-.1162.3373-.2153.6846-.3276,1.0264.0574.0774.1707.2316.2258.31.02-.1515.0578-.4534.0778-.6049.1222-.0572.3659-.1745.4881-.2316Q107.8194,50.9164,107.5831,50.6742Zm.5788,2.54a4.6514,4.6514,0,0,0,.0839-1.6434C107.7439,51.9532,107.4289,52.8864,108.1619,53.2144Zm.1412,1.076c.57-.4436.4708-1.3328.4311-2.0182A3.313,3.313,0,0,0,108.3031,54.29Z"/><path class="cls-2" d="M112.56,55.39a9.089,9.089,0,0,1,.1488-4.4334c.0555.4355.0947.8731.1624,1.3068a12.7978,12.7978,0,0,1,.9435-2.6288,7.108,7.108,0,0,1,1.73-2.0452,3.05,3.05,0,0,1,2.5879-.7083,7.8193,7.8193,0,0,1,3.4271,1.9742,24.7921,24.7921,0,0,0,3.4,2.5966c.2288-.8888-.701-1.1285-1.1647-1.5343-.9955-.8731-2.0636-1.62-3.1179-2.3909a5.9147,5.9147,0,0,0-3.9507-1.1335,8.9673,8.9673,0,0,0-2.2168,1.686,17.1114,17.1114,0,0,0-1.6789,2.2884,4.3028,4.3028,0,0,0-.8422,3.269c.1355,1.62.4335,3.2135.6407,4.8227.34,1.6162.8815,3.5524,2.4085,4.0914a11.7485,11.7485,0,0,1-1.6724-2.8782A22.1477,22.1477,0,0,1,112.56,55.39Zm5.34-8.1778c-1.5561-.3392-2.9122,1.0383-3.7567,2.4-.2872.6413-.8318,1.4365-.43,2.16a11.2353,11.2353,0,0,1,1.2051-2.7023,4.18,4.18,0,0,1,1.8881-1.4724,4.1226,4.1226,0,0,1,2.8683.9047,11.9981,11.9981,0,0,1,1.8041,1.6615c1.1321.9,2.2611,1.8024,3.4306,2.6367-.0259-1.13-1.129-1.3466-1.7355-1.9547C121.51,49.4872,120.0267,47.5137,117.9,47.2117Zm1.7782,2.171a2.5854,2.5854,0,0,0-2.241-1.5009,2.6387,2.6387,0,0,0-2.1262,1.1823,7.2349,7.2349,0,0,0-1.4572,4.2984,8.68,8.68,0,0,0,1.1613,4.1655,2.28,2.28,0,0,0,.7443.8856c-.4014-1.7716-1.6991-3.2593-1.5481-5.2013a6.9206,6.9206,0,0,1,1.2561-3.72,2.6,2.6,0,0,1,2.3774-1.1768c-.1482.1049-.4461.3137-.5959.4178A10.0583,10.0583,0,0,1,119.6781,49.3827Zm.2632-.0546a2.6085,2.6085,0,0,0,.4868.99,25.6942,25.6942,0,0,0,3.8026,3.3315c.2564.256.5864.1524.8868.11a12.591,12.591,0,0,0-1.574-1.2531C122.2243,51.6316,121.3256,50.0954,119.9413,49.3281Zm-.4355.5473a4.9541,4.9541,0,0,0-1.9854-.7945,1.5387,1.5387,0,0,0-1.6756.4,4.66,4.66,0,0,0-1.1251,3.5512c.5438-1.0745.6532-2.42,1.4415-3.3278.5592-.4811,1.2959-.1936,1.9048-.0259,1.5244.4683,2.4381,2.06,3.6135,3.1475a9.9735,9.9735,0,0,0,3.4166,2.3028c-.35-.7559-1.08-1.0462-1.6768-1.4636C121.94,52.656,120.9156,50.99,119.5058,49.8754Zm-2.4144,5.4958a1.6085,1.6085,0,0,0,.78.897c-.1892-1.2709-1.0359-2.2551-1.2182-3.5376-.1917-.8482.0913-2.0051.8954-2.239.8134-.0746,1.4706.65,2.0446,1.2212a16.2375,16.2375,0,0,0,2.9827,3.0542,3.8066,3.8066,0,0,1,1.9039,1.7118c.1266-.3894.2493-.9462-.1955-1.1293a14.7135,14.7135,0,0,1-3.6929-3.1505,6.5763,6.5763,0,0,0-2.8454-2.2728c-.9291.0441-1.464,1.2242-1.5345,2.188A10.18,10.18,0,0,0,117.0914,55.3712ZM116.07,50.9218a4.862,4.862,0,0,0,.9586-1.183,3.94,3.94,0,0,0-1.1722.7082C115.909,50.5666,116.0158,50.804,116.07,50.9218Zm1.1832,1.4c-.0529-.4008.1275-.9669.5336-.9644.6825.0759,1.1673.708,1.5765,1.288a10.7264,10.7264,0,0,0,3.8,3.4908,1.8062,1.8062,0,0,0,1.0911.1266,12.7451,12.7451,0,0,1-4.2868-3.5348,5.3969,5.3969,0,0,0-1.725-1.7256.8415.8415,0,0,0-1.2511.6676,3.83,3.83,0,0,0,.4822,2.4783c.3826.6831.62,1.531,1.2777,1.9427C118.5535,54.6815,117.392,53.7559,117.2528,52.3218Zm1.21.4355c.086-.0713.2556-.213.3415-.2843a9.8806,9.8806,0,0,0-.78-.8057A3.5941,3.5941,0,0,0,118.4626,52.7573Zm4.524,5.1456c.2369.0529.4492-.1491.6686-.2133a12.5361,12.5361,0,0,1-3.1478-1.6,11.148,11.148,0,0,1-1.9057-2.5094,6.5485,6.5485,0,0,0-1.0993-1.72,8.1214,8.1214,0,0,0,2.2086,4.151A6.0435,6.0435,0,0,0,122.9866,57.9029Zm-.2948-1.5745c-1.0261-.3706-1.7025-1.38-2.563-2.06-.4735-.5276-.7462-1.3887-1.4956-1.46a9.17,9.17,0,0,0,2.2059,2.9066,5.3379,5.3379,0,0,0,2.3494,1.2906,1.824,1.824,0,0,0,1.4061.086C124.083,56.5219,123.3023,56.6688,122.6918,56.3284Zm-6.8022-5.34a2.5028,2.5028,0,0,0-.0084,2.3984A6.216,6.216,0,0,0,115.89,50.9884Zm-4.2315,2.9544c-.2569-1.3876.4084-2.6671.7571-3.9426-.8136.6279-.8179,1.884-1.2964,2.7862a6.0747,6.0747,0,0,0-.1629,3.3609,19.9134,19.9134,0,0,0,.1316,3.0877c.1188.4673.5253.682.84.9422.022-.36.181-.7623.0012-1.0994a3.8669,3.8669,0,0,1-.5832-1.6011,15.0924,15.0924,0,0,1-.094-4.1684,23.7511,23.7511,0,0,1,.32,3.34,29.8082,29.8082,0,0,0,.7238,3.0137,5.3882,5.3882,0,0,0,.6462,1.8782,13.9846,13.9846,0,0,0-.6863-3.3559C111.891,56.805,111.9012,55.3493,111.6581,53.9428ZM123.7526,57.6c-.2022.25-.1575.3987.1333.4423C124.0888,57.79,124.0433,57.6439,123.7526,57.6ZM117.86,61.7373a14.1574,14.1574,0,0,1-3.9558-5.992c-.4548-1.2331-.2338-2.6017-.3947-3.8942a7.1283,7.1283,0,0,0,.4763,5.0521,13.1792,13.1792,0,0,0,3.2584,4.8231c.3791.2615.7564.6671,1.2338.5876C118.6537,61.8123,118.1207,61.8643,117.86,61.7373Zm-2.2862-6.958a2.5118,2.5118,0,0,0-.3672-1.87A3.6315,3.6315,0,0,0,115.5733,54.7793Zm.4952,2.4746a12.9631,12.9631,0,0,1-1.3082-4.1,3.2177,3.2177,0,0,0-.1569,1.3941,10.2986,10.2986,0,0,0,2.017,3.9052c.1133-.127.2283-.2532.344-.3766-.4286-1.0686-.74-2.1953-1.2244-3.2331C115.2452,55.7028,116.41,56.3581,116.0685,57.2539Zm1.4083-.2364c-.5759-.93-.8338-2.0612-1.4-2.9964a9.4021,9.4021,0,0,0,.7495,2.7763,4.0965,4.0965,0,0,0,1.75,2.2419C118.5892,58.136,117.86,57.69,117.4768,57.0175Zm2.5608-.128a2.9772,2.9772,0,0,0-1.2149-.8178c-.4091.4487.2212.6018.5113.67-.0139.1326-.04.4031-.0534.5385a8.0159,8.0159,0,0,0,2.5359,1.3036,2.4229,2.4229,0,0,0,1.5478.0823C122.3353,57.8627,120.9584,57.9028,120.0376,56.89Zm-7.2129-2.5045a3.0865,3.0865,0,0,0-.0426-1.9792A3.2862,3.2862,0,0,0,112.8247,54.385Zm7.087,4.3783c.0025-.1057.0122-.3189.0148-.4245-.89-.4021-1.3214-1.4322-1.9732-2.1643A2.3389,2.3389,0,0,0,119.9117,58.7633Zm.2514.0411a2.8023,2.8023,0,0,0,2.324.5576,7.2676,7.2676,0,0,0-2.2268-.8546C120.2367,58.581,120.1889,58.73,120.1631,58.8044Zm-7.2544-3.9832c.2115-.24.1714-.3862-.1232-.4386C112.574,54.623,112.6141,54.7687,112.9087,54.8212Zm-2.4671-1.416c-.2892,1.0083-.3267,2.0891-.6452,3.09a2.3044,2.3044,0,0,0,.0014,1.0027q.24-.6355.4371-1.2895c.1695,1.0274-.0783,2.1195.3128,3.1a3.4528,3.4528,0,0,0,.1514-1.5669C110.5452,56.3006,110.6,54.8437,110.4416,53.4052Zm8.1547,5.52c1.0667.6147,2.19,1.3983,3.4324,1.2007-.7151-.4427-1.5145-.6412-2.2486-1.0344A2.1856,2.1856,0,0,0,118.5963,58.9255ZM112.9674,55a2.7067,2.7067,0,0,0,.3826,2.1557c.6629,1.0553,1.0369,2.307,1.6729,3.38a5.0759,5.0759,0,0,0,2.9616,2.3973l.0738-.17a7.9856,7.9856,0,0,1-3.4887-4.0311A22.0664,22.0664,0,0,1,112.9674,55Zm5.8185,5.25a5.453,5.453,0,0,0-1.8569-2.0085,1.1909,1.1909,0,0,0,.2934.9845c.8661,1.0377,1.8989,2.4119,3.29,2.0763C119.9483,60.9285,119.2029,60.8792,118.7859,60.25Zm1.9318.2819a11.6045,11.6045,0,0,0-2.0413-1.0251A1.7724,1.7724,0,0,0,120.7177,60.532Zm-4.6536-1.4509a7.9121,7.9121,0,0,0,2.4234,2.6428,3.6973,3.6973,0,0,0-1.3043-1.8664c-.5475-.5074-.7675-1.3339-1.3349-1.817A1.65,1.65,0,0,0,116.0641,59.0811Zm-1.8188,1.7575c.1608.4.5541.451.8731.5911-.2634-.57-.5737-1.107-.8708-1.6519a15.8792,15.8792,0,0,0-1.0528-2.2514A10.524,10.524,0,0,0,114.2453,60.8386Zm4.4953.9363a8.2387,8.2387,0,0,0,1.0929.0318C119.4744,61.6705,119.0707,61.3949,118.7406,61.7749Zm-3.6-.1449a6.6947,6.6947,0,0,0,.35.7827,3.6707,3.6707,0,0,0,.4823-.1681A1.985,1.985,0,0,0,115.1411,61.63Zm2.0606,1.65a5.6223,5.6223,0,0,0-1.2646-.9042C116.1015,63.0118,116.6217,63.4791,117.2017,63.28Z"/><path class="cls-3" d="M117.5049,31.828a2.1943,2.1943,0,0,0,.9018-.1246c-.9741-.593-2.074-.3364-3.1189-.3318-1.05.02-2.2314-.0918-3.0917.7459a17.262,17.262,0,0,0,2.0636-.31A23.2155,23.2155,0,0,1,117.5049,31.828Zm-4.9742,3.297c1.0879-.4776,2.26-.561,3.3705-.9323a4.1372,4.1372,0,0,0-3.1554.3524,8.26,8.26,0,0,0-2.39,1.2612C111.1472,35.978,111.8045,35.3521,112.5307,35.125Zm.0755-1.4965a11.951,11.951,0,0,0-5.4416,3.8106c-.3938.4352-1.0794.9288-.7373,1.6578a13.5625,13.5625,0,0,1,4.37-4.16,9.1191,9.1191,0,0,1,2.8977-1.1447c1.05-.33,2.1324.0038,3.1971-.0475a12.4074,12.4074,0,0,1,2.5252.2868,2.4338,2.4338,0,0,1,1.28.7457c.12-.1145.2409-.2282.3612-.3445-.1472.7324.3163.3684.5613.3524a4.6752,4.6752,0,0,0-2.0768-1.1861A14.3674,14.3674,0,0,0,112.6062,33.6285Zm-1.9649-.1268a20.89,20.89,0,0,0-2.1975,1.2687c-.6572.6125-1.219,1.3532-1.8444,2.0084.1248,0,.3722-.0035.497-.0035.8384-.6,1.4188-1.616,2.3435-2.08a14.3885,14.3885,0,0,1,4.96-1.9487,23.2385,23.2385,0,0,1,4.4473.1837,3.2925,3.2925,0,0,0,1.04-.0144,2.9822,2.9822,0,0,0-1.4888-.6065c-1.3323.0345-2.6637-.0825-3.9968-.0687a6.5733,6.5733,0,0,0-3.3258,1.0806c-.0553-.1187-.17-.356-.2275-.4738A.6769.6769,0,0,0,110.6413,33.5017Zm-5.313,8.1149c.7718-.6651,1.2788-1.7072,2.199-2.1425.022-.3734.0393-.7495.0481-1.1238C106.8344,39.45,105.6662,40.1989,105.3283,41.6166Zm5.3162-9.2734a8.03,8.03,0,0,0-2.7678,1.826,6.2622,6.2622,0,0,0-1.9152,2.5013c.8939-.6132,1.4865-1.6487,2.3516-2.3029A11.1334,11.1334,0,0,0,110.6445,32.3432Zm3.176,4.5283a5.8252,5.8252,0,0,0-2.5147,1.1519,12.5175,12.5175,0,0,0-4.125,3.8766c-.1224-.137-.245-.274-.3682-.4093-.1538.2177-.3052.4391-.452.663.1446-.0467.4362-.1409.5824-.1867-.0039.15-.01.3-.0169.4523q-.2538.3333-.4865.6855c1.1071-.4912,1.5118-1.9443,2.4768-2.6574a20.87,20.87,0,0,1,3.4917-2.6636,13.601,13.601,0,0,1,4.7381-.9686,9.2985,9.2985,0,0,1,3.5726.598,11.9187,11.9187,0,0,0,2.3519.7454,3.8414,3.8414,0,0,0-1.128-.873A12.896,12.896,0,0,0,113.8205,36.8715Zm-7.4612,6.3726c-.2332.0518-.1975.543.06.47C106.6567,43.6619,106.6171,43.1752,106.3593,43.2441Zm14.3842-5.3817a11.7521,11.7521,0,0,0-6.4779-.3055c-2.4776.5661-4.4825,2.55-6.2322,4.552l.4281.236a15.9923,15.9923,0,0,1,2.6665-2.8055,10.4971,10.4971,0,0,1,7.4465-1.771,6.2526,6.2526,0,0,1,2.1835.5219c-.5986.3336-1.2109-.07-1.8178-.1252a14.49,14.49,0,0,0-2.5609-.0349,6.68,6.68,0,0,0-3.1128.8186,3.831,3.831,0,0,0,2.5006-.3031,11.758,11.758,0,0,1,3.601-.0082c1.37.1927,2.7133.5817,4.0732.84C122.8545,38.3651,121.5451,38.6447,120.7435,37.8624Zm-3.9322-3.5059c-.777.0976-1.472.5635-2.2458.6853a7.4659,7.4659,0,0,0-2.7293.7881,5.235,5.235,0,0,0-2.3173,1.9276c.6254-.0751,1.0082-.7063,1.55-.9965a9.0314,9.0314,0,0,1,1.5653-.8651c.7839-.2587,1.6027-.3326,2.38-.62a8.6978,8.6978,0,0,1,2.701-.4406,8.0171,8.0171,0,0,1,4.01,1.3435,1.9314,1.9314,0,0,1-.782-.1217,9.3509,9.3509,0,0,0-3.58-.6893c-1.1322-.0386-2.1588.6794-3.291.6542a5.7209,5.7209,0,0,0-3.1066,1.2795c-.658.6367-1.6286.6927-2.17,1.5075-.1069-.2507-.32-.46-.3106-.7578.5024-.7457,1.3607-1.08,1.7051-1.9832a3.9888,3.9888,0,0,0-2.1586,2.07c.0657.1714.13.3465.19.5215l-.345-.1059c-.0034.2346-.0037.4709,0,.7072.1618-.164.4883-.49.6508-.6562l.0327.5074c-.5512.5526-1.5042.8931-1.482,1.9011,1.1173-.9,1.9845-2.2028,3.2355-2.8794a14.1317,14.1317,0,0,1,2.0851-1.2348,15.8644,15.8644,0,0,1,6.5353-.9267c1.1476.0206,2.2111.9237,3.3691.5843a.5057.5057,0,0,0-.1783-.517,7.3219,7.3219,0,0,0-2.7392-1.4043A5.4457,5.4457,0,0,0,116.8113,34.3565Zm-10.2776,7.8829a2.7513,2.7513,0,0,0-1.2331,1.6174C106.0012,43.731,106.3254,42.9346,106.5337,42.2394Zm1.1922,1.0614c.2091-.262.659-.7253.1173-.8567-.5219.5516-.9042,1.2633-1.4432,1.8006-.2364-.1039-.4751-.207-.7121-.3092.1.258.216.5051.3122.7677-.1771.3227-.3419.6524-.4919.9927C106.2787,44.9385,107.0136,44.13,107.7259,43.3008Zm3.503-2.88c.6269-.5227,1.3666-.8314,1.9623-1.4076-1.3911.1189-2.5164,1.26-3.4617,2.3527-1.0488,1.3368-2.1472,2.6229-3.196,3.96a3.0983,3.0983,0,0,0-.5568,1.7075,30.4142,30.4142,0,0,1,2.1054-2.9547A18.5055,18.5055,0,0,1,111.2289,40.4205ZM114.12,39.377a6.5985,6.5985,0,0,0-3.654,2.2717,29.3318,29.3318,0,0,0-2.835,3.5972,4.4311,4.4311,0,0,0-1.297,2.8193c.6732-.9492,1.1692-2.0512,1.8626-2.9843a22.4479,22.4479,0,0,1,3.6979-4.2148C112.5929,40.2748,113.5223,40.1394,114.12,39.377Zm-8.9813,2.27c-.29.0217-.2367.572.0557.4982C105.4983,42.1356,105.4191,41.5882,105.1389,41.6466Zm.4165-2.31c-.2805.15-.1643.56-.0284.7781a11.9026,11.9026,0,0,0,.8423-.8859C106.1059,39.2477,105.7776,39.1068,105.5554,39.3367Zm1.02,1.6992a2.4534,2.4534,0,0,0-1.3024,1.6134,4.0518,4.0518,0,0,0,1.4557-1.4811C106.689,41.1344,106.6132,41.0687,106.5752,41.0359Zm-.0234-3.7823a1.8054,1.8054,0,0,0-1.2335,1.6952A3.3442,3.3442,0,0,0,106.5518,37.2536Zm15.67,2.59a11.6456,11.6456,0,0,0-5.989-.847,6.513,6.513,0,0,0-2.6029,1.242,10.804,10.804,0,0,0-2.2485,1.5206,5.9851,5.9851,0,0,0-1.43,1.779c.98-.4411,1.5733-1.5365,2.4874-2.1024a21.1137,21.1137,0,0,0,2.1977-1.3466,5.6417,5.6417,0,0,1,4.1943-.6372,11.906,11.906,0,0,1,4.4569,1.4253,1.0822,1.0822,0,0,0,.7108.1947A2.5491,2.5491,0,0,0,122.2218,39.844Zm-10.9755-7.3483q.2376-.3294-.1223-.4182Q110.884,32.4056,111.2463,32.4957Z"/><ellipse class="cls-1" cx="100.5266" cy="37.3928" rx="3.4818" ry="4.0449"/><path class="cls-2" d="M180.6769,38.5351a2.5295,2.5295,0,1,1-2.5013-2.9058A2.7265,2.7265,0,0,1,180.6769,38.5351Z"/><path class="cls-3" d="M176.9391,47.2458a5.6667,5.6667,0,0,1-1.7821-.2939c-.1023.0646-.203.1321-.307.1937l-1.2443.7472q-.3086.18-.6.37c-.2036.1121-.412.2112-.6149.3151-.407.2058-.8116.3987-1.1915.61-.3943.182-.7964.3183-1.18.4727-.1928.0747-.3848.1459-.5675.228l-.5685.1557a11.1,11.1,0,0,1-1.0956.27c-.3668.0309-.7062.0956-1.0428.1444-.3377.0372-.6753-.0059-.9929.0016a5.7775,5.7775,0,0,1-.9358-.0892l-.4452-.0509-.4465-.13a6.6658,6.6658,0,0,1-.8621-.2687c-.2909-.12-.56-.1756-.8488-.3214s-.5709-.2809-.8483-.4075c-.29-.1857-.58-.3418-.8674-.4888-.2842-.1383-.592-.3729-.8825-.5454-.148-.0969-.2912-.1751-.4414-.2832l-.4516-.3331c-.5938-.4-1.2292-.8853-1.8433-1.3436-1.2409-1.0395-2.547-2.0755-3.8573-3.2641-1.3128-1.21-2.6913-2.3614-4.068-3.679l-4.3135-3.85c-1.4987-1.268-3.0429-2.5621-4.6335-3.8436-1.639-1.2213-3.28-2.4934-5.0678-3.6366a48.1691,48.1691,0,0,0-5.6144-3.1836,43.86,43.86,0,0,0-6.0275-2.293c-1.0485-.29-2.11-.5113-3.1562-.7412-.51-.1312-1.0856-.1735-1.6249-.255-.5451-.08-1.0954-.1208-1.6384-.1739a13.6972,13.6972,0,0,0-1.675-.0561c-.5644.0032-1.123-.0035-1.68.0281-.5545.02-1.1521.1406-1.7155.2133l-.8491.1305a4.57,4.57,0,0,0-.8523.1851,14.8427,14.8427,0,0,0-6.4093,3.3419l-.6795.64c-.2133.2421-.42.4858-.6174.7362a11.602,11.602,0,0,0-1.07,1.5716c-.16.2692-.2842.5845-.4181.8677a7.3021,7.3021,0,0,0-.35.8857l-.0007.0019a5.6823,5.6823,0,0,1,1.8814.3316c.0716-.0709.1414-.1464.2139-.214a8.3423,8.3423,0,0,1,1.0965-.8448l.574-.3754.6117-.2927c.2043-.0956.4056-.1989.6113-.2891l.6407-.202.6387-.2036a6.6115,6.6115,0,0,1,.6569-.124l.6588-.111a3.3643,3.3643,0,0,1,.6624-.0775l1.3382-.0392a3.4838,3.4838,0,0,1,.67.0239l.6714.0606c.4468.0532.8957.05,1.34.1477l1.3325.28a9.2616,9.2616,0,0,1,1.3246.33l1.3112.4234a12.0277,12.0277,0,0,1,1.3028.4572l2.5639,1.0976c6.8181,3.1263,12.74,8.3041,18.6586,13.48,2.98,2.5651,5.9744,5.1529,9.1347,7.508a54.4356,54.4356,0,0,0,4.9139,3.2557,25.46,25.46,0,0,0,5.3671,2.3134,14.1,14.1,0,0,0,5.7777.5038,13.3278,13.3278,0,0,0,5.529-2.023c.428-.26.8158-.5961,1.2241-.8909l.6024-.4595.5582-.5238c.3684-.3534.75-.6895,1.1053-1.0569l1.0179-1.158c.1682-.1941.3411-.3832.505-.5812l.4629-.6235.9239-1.246c.3329-.4857.6511-.9838.9669-1.4834C177.2529,47.2311,177.0976,47.2458,176.9391,47.2458Z"/><path class="cls-2" d="M136.4946,48.7117l-.2464-.212-.7841-.6852c-.8208-.6979-1.6165-1.3875-2.371-2.0557-1.077,3.0075-7.901,20.6945-19.4493,20.6945-10.8612,0-12.7073-16.809-13.011-21.4966-.0357.0007-.07.0062-.1062.0062a5.691,5.691,0,0,1-2.2188-.46c.6361,12.0721,6.0437,26.7134,18.283,26.7134,11.0063,0,20.0634-16.6776,22.065-20.65Q137.565,49.6355,136.4946,48.7117Z"/><path class="cls-1" d="M139.6131,20.9l1.6885-1.7905a3.7081,3.7081,0,0,1,1.8261-1.2129,1.7691,1.7691,0,0,1,1.6026.5527,2.1784,2.1784,0,0,1,.6474,1.0293,1.3678,1.3678,0,0,1-.0927,1.0137l.041.0386a1.628,1.628,0,0,1,1.1416-.23,2.2746,2.2746,0,0,1,1.0908.6245,2.2312,2.2312,0,0,1,.7832,1.731,2.85,2.85,0,0,1-.8818,1.8711l-1.8848,1.9975Zm3.5957.772.3936-.418a.9258.9258,0,0,0,.2929-.5962.732.732,0,0,0-.2695-.5634q-.5025-.4733-1.1182.18l-.3672.39Zm1.1787,1.1118,1.252,1.1812.46-.4878a.7819.7819,0,0,0-.0234-1.25.8072.8072,0,0,0-.62-.2569.9922.9922,0,0,0-.6348.3536Z"/><path class="cls-1" d="M153.3934,19.6454l-3.42,2.419L145.24,15.3725l3.42-2.4194,1.0263,1.4511-1.8632,1.3184.7441,1.0527,1.7266-1.2207,1.0263,1.4512-1.7265,1.2207.8945,1.2632,1.8633-1.3184Z"/><path class="cls-1" d="M159.1111,17.87l-1.8808.3125-1.0459-6.3-1.6992.2817-.2969-1.7861,5.2754-.876.2969,1.7866-1.6954.2813Z"/><path class="cls-1" d="M163.7078,15.3784l-.9394,2.8305-1.81-.6006,2.583-7.7793,2.1943.7286q2.7291.9066,1.9668,3.205a2.4831,2.4831,0,0,1-1.831,1.7139l.8262,4.0376-2.0518-.6812-.4805-3.3022Zm.5254-1.5806.3389.1128a.8953.8953,0,0,0,1.2715-.6592q.2665-.8028-.6631-1.1118l-.3574-.1187Z"/><path class="cls-1" d="M176.4529,17.8144,173.06,21.3969a3.6305,3.6305,0,0,1-2.2832,1.27,2.8651,2.8651,0,0,1-2.2491-.9135,2.8353,2.8353,0,0,1-1.02-2.1475,3.5637,3.5637,0,0,1,1.1338-2.3242l3.4277-3.6187,1.3917,1.3174-3.3086,3.4927a2.2153,2.2153,0,0,0-.6641,1.1084A1.0887,1.0887,0,0,0,170.7,20.7333a2.3485,2.3485,0,0,0,1.0684-.7451l3.3007-3.4844Z"/><path class="cls-1" d="M173.6356,28.1728,171.33,24.6757l6.8428-4.5127,2.3066,3.4976-1.4844.978-1.2568-1.9058-1.0762.71,1.1641,1.7647-1.4844.9785-1.1631-1.7647-1.292.8521,1.2569,1.9057Z"/><path class="cls-3" d="M102.7586,84.2431H99.6024c-.1534,0-.2793-.0015-.38-.0039s-.1758-.0064-.2256-.0117a1.335,1.335,0,0,1-.3194-.0825.9482.9482,0,0,1-.5078-.4473,1.4563,1.4563,0,0,1-.1992-.7539,2.8756,2.8756,0,0,1,.02-.3374,1.9765,1.9765,0,0,1,.084-.3687,2.4085,2.4085,0,0,1,.1787-.4218c.0694-.1246.14-.2427.2129-.3555l.2109.1416q-.0834.1568-.1376.2861t-.085.22a1.2364,1.2364,0,0,0-.0557.3575.66.66,0,0,0,.1348.4043.6372.6372,0,0,0,.3613.2314,2.107,2.107,0,0,0,.3428.0547c.14.0132.2891.02.4473.02h2.7187a2.981,2.981,0,0,0-.1728-.4238,3.0841,3.0841,0,0,0-.2559-.3809l.3389-.9106a2.5145,2.5145,0,0,1,.3691.7695,4.1334,4.1334,0,0,1,.0752.9024Zm-1.3281-3.7246-.3916.7612-.5567-.29-.3154.6357-.6846-.4.4141-.8007.5332.3139.3018-.62Z"/><path class="cls-3" d="M104.4871,84.2431h-.5263a.6632.6632,0,0,1-.6358-.377,3.2378,3.2378,0,0,1-.2187-1.4008V81.3466a1.0138,1.0138,0,0,0-.3272-.8867l.4063-.9814a2.0879,2.0879,0,0,1,.3046.62,3.4151,3.4151,0,0,1,.1016.9106v.773a4.1374,4.1374,0,0,0,.1055,1.1381q.082.2558.2637.2554h.5263Z"/><path class="cls-3" d="M108.5184,84.2431h-4.2959V83.1757h.5009a1.6364,1.6364,0,0,0,.5079-.3257q.139-.1062.4023-.33,0-.4827-.0342-.816a6.5348,6.5348,0,0,0-.1094-.6948q-.0189-.0864-.2031-.8515l-.2178-.1416q.0866-.4117.1426-.59c.0381-.1191.11-.3071.2188-.5635l.1728.0708a.6523.6523,0,0,1-.0156.1021c0,.0913.125.2.3731.3257q.1245.063.372.1611a3.3653,3.3653,0,0,1-.12.5728c-.0273.0888-.0781.2275-.15.416l-.1357-.0469q.1172.5574.1562.8218a3.2331,3.2331,0,0,1,.0391.4731v.043c0,.0762-.002.1357-.0049.1787s-.0146.1108-.0322.2022q.1948-.1488.3945-.2984a5.7043,5.7043,0,0,1,.5459-.3608,1.1032,1.1032,0,0,1,.4814-.1807,1.0284,1.0284,0,0,1,.711.2393.9981.9981,0,0,1,.3008.7812Zm-.5235-1.4678c0-.0918-.0927-.1772-.2783-.2573a1.2656,1.2656,0,0,0-.4883-.12,1.2013,1.2013,0,0,0-.5586.167,7.93,7.93,0,0,0-.9013.61h.9853Q107.9959,83.1757,107.9949,82.7753Z"/><path class="cls-3" d="M113.2049,84.2431a3.2362,3.2362,0,0,1-.6992-.063,2.3388,2.3388,0,0,1-.55-.2,1.3193,1.3193,0,0,1-.3887.2119,1.9165,1.9165,0,0,1-.5137.0513H110.44a.56.56,0,0,1-.3984-.1372,1.1924,1.1924,0,0,1-.2637-.4556,1.3218,1.3218,0,0,1-.4619.4712,1.06,1.06,0,0,1-.5234.1216h-.5381V83.1757h.5381a.9584.9584,0,0,0,.6582-.2319,1.16,1.16,0,0,0,.3428-.918l.248.0391c-.0049.084-.01.1792-.0156.2866s-.0069.2261-.0069.3569a.4553.4553,0,0,0,.1319.3335.408.408,0,0,0,.3008.1338h.4619a1.2022,1.2022,0,0,0,.6552-.1338.6762.6762,0,0,0,.2364-.6.27.27,0,0,1,.0566-.1689,1.0176,1.0176,0,0,1,.14-.1294l.1425-.1177c.0049.0493.0088.1167.0108.2022s.0039.1406.0039.1665a3.62,3.62,0,0,1-.06.5732,1.8671,1.8671,0,0,0,.3115.1216,2.5882,2.5882,0,0,0,.3653.0786.9084.9084,0,0,0-.0938-.3457.9041.9041,0,0,1-.0947-.2861.3729.3729,0,0,1,.0264-.1573,1.012,1.012,0,0,1,.083-.1215l.3193-.4517a2.6627,2.6627,0,0,1,.1455.45,2.5049,2.5049,0,0,1,.043.5044Zm-.4365-3.7637-.4131.8-.5342-.3139-.3008.62-.7-.4.3916-.7617.5567.29.3154-.6358Zm-.73-.93-.376.8164-.707-.3926.3838-.8008Z"/><path class="cls-3" d="M115.2957,84.2431h-2.3545V83.1757H114.92a1.2435,1.2435,0,0,0-.15-.4516,2.8685,2.8685,0,0,0-.2627-.3531l.3008-.9341a1.8856,1.8856,0,0,1,.3858.6988,4.2814,4.2814,0,0,1,.1025,1.083Zm.0234-4.2739-.4521.8789-.88-.4785.4551-.8872Z"/><path class="cls-3" d="M118.494,84.2392a3.29,3.29,0,0,1-.93-.1611,4.4392,4.4392,0,0,1-.8272-.3335,1.02,1.02,0,0,1-.5381.4472,1.3784,1.3784,0,0,1-.4209.0513h-.7451V83.1757h.7451a1.379,1.379,0,0,0,.5381-.0864.6292.6292,0,0,0,.3535-.3809,2.4866,2.4866,0,0,1,.5489-.82.82.82,0,0,1,.5039-.2861q.1918,0,.4746.604a2.8368,2.8368,0,0,1,.2969,1.1777Zm-.7032-1.1856a.665.665,0,0,0-.1621-.2978c-.12-.1572-.2246-.2358-.3125-.2358q-.1464,0-.248.3535c.1308.0522.23.0913.2968.1176a2.2056,2.2056,0,0,0,.3428.1177C117.7625,83.1088,117.7908,83.0908,117.7908,83.0536Z"/><path class="cls-3" d="M120.3,84.2431H118.23V83.1757h1.6181l-.455-2.665-.2412-.1651a1.69,1.69,0,0,1,.0673-.4668,4.3658,4.3658,0,0,1,.294-.71l.1728.0942c0,.0157-.0048.0577-.0146.1255a.33.33,0,0,0,.1572.2515,2.1364,2.1364,0,0,0,.4444.2432,3.7017,3.7017,0,0,1-.1.4907,3.192,3.192,0,0,1-.1484.4277l-.1357-.0552.41,2.43Z"/><path class="cls-3" d="M121.6131,83.101a2.41,2.41,0,0,1-.0791.6377,5.3352,5.3352,0,0,1-.3047.7754l-.2256-.0942a4.7921,4.7921,0,0,0,.0908-.8164q0-.24-.038-.7027t-.0938-.9165q-.0571-.4533-.1846-1.081a1.8,1.8,0,0,1-.0449-.3023,1.3543,1.3543,0,0,1,.1162-.4141c.0781-.1948.1865-.4311.3272-.7084l.2256,1.3891q.1245.7932.1738,1.374Q121.6126,82.6892,121.6131,83.101Z"/><path class="cls-3" d="M126.6385,84.2431h-.4932a.5248.5248,0,0,1-.248-.0591.8886.8886,0,0,1-.3682-.416,3.2527,3.2527,0,0,1-.2637-1.1382,4.81,4.81,0,0,1-.3984.4673.5735.5735,0,0,1-.3467.2.889.889,0,0,1-.18-.0234l-.459-.0943a3.1044,3.1044,0,0,1-.3613-.09.0991.0991,0,0,1-.0674-.0982,2.9243,2.9243,0,0,1,.2608-.6694,3.8165,3.8165,0,0,1,.3779-.6963,2.0609,2.0609,0,0,1,.335-.2749c.0957-.0678.23-.1557.4062-.2627l.1992-.122a1.1823,1.1823,0,0,1-.0224-.22,1.4243,1.4243,0,0,1,.0654-.3745,3.4781,3.4781,0,0,1,.2354-.56l.3613,2.4493a2.0636,2.0636,0,0,0,.2256.7807.2834.2834,0,0,0,.248.1338h.4932Zm-.8692-5.5024-.414.73-.5332-.3139-.3018.62-.6992-.4.3916-.6909.5566.29.3272-.6006Zm-.5937,3.2851-.0752-.4712c-.0811.0391-.1436.0708-.1885.0943a2.4337,2.4337,0,0,0-.331.2119,1.6684,1.6684,0,0,0-.15.145.2517.2517,0,0,0-.0752.13c0,.0366.0439.0654.1318.0859a1.11,1.11,0,0,0,.2588.0318.3644.3644,0,0,0,.1738-.0494A2.14,2.14,0,0,0,125.1756,82.0258Z"/><path class="cls-3" d="M130.6707,84.2431h-4.2959V83.1757H129.05a3.599,3.599,0,0,0-.8428-.7065,1.36,1.36,0,0,0-.6689-.1924,1.5164,1.5164,0,0,0-.1787.01,2.3915,2.3915,0,0,0-.2354.0454,2.0707,2.0707,0,0,1,.461-.73.824.824,0,0,1,.5771-.2359.9863.9863,0,0,1,.4776.1255,2.4946,2.4946,0,0,1,.5156.4043q.2256.2205.6387.687a2.5446,2.5446,0,0,0,.4306.4278,1.3857,1.3857,0,0,0,.4463.165Z"/><path class="cls-3" d="M133.0174,84.2431h-2.61V83.1757h2.2569a4.291,4.291,0,0,0-.0186-.4868,1.0774,1.0774,0,0,0-.124-.3887.9071.9071,0,0,1-.3232.3731.793.793,0,0,1-.4327.1294.6876.6876,0,0,1-.5078-.208.7107.7107,0,0,1-.207-.522,2.8868,2.8868,0,0,1,.27-1.0991q.2973-.6981.6025-.6983.394,0,.7442.7183a3.42,3.42,0,0,1,.35,1.5185Zm-.5449-5.1924-.4512.8789-.8809-.4785.4551-.8872Zm-.27,2.5513a1.1343,1.1343,0,0,0-.1787-.2573.242.242,0,0,0-.168-.0728.2651.2651,0,0,0-.2031.106.3731.3731,0,0,0-.09.2475.1939.1939,0,0,0,.0693.1509.2639.2639,0,0,0,.1788.061.3343.3343,0,0,0,.1748-.0532A1.2347,1.2347,0,0,0,132.202,81.602Z"/><path class="cls-3" d="M134.7459,84.2431H134.22a.6631.6631,0,0,1-.6357-.377,3.2375,3.2375,0,0,1-.2188-1.4008V81.3466a1.0134,1.0134,0,0,0-.3271-.8867l.4062-.9814a2.0859,2.0859,0,0,1,.3047.62,3.4151,3.4151,0,0,1,.1016.9106v.773a4.1374,4.1374,0,0,0,.1055,1.1381q.0821.2558.2636.2554h.5264Z"/><path class="cls-3" d="M137.5213,84.2431h-3.0391V83.1757h2.4414a3.5456,3.5456,0,0,0-.2861-.3218c-.0752-.0732-.1767-.1626-.3047-.267q-.2139-.173-.4248-.3453l-.12.1412q-.3354-.345-.3984-.42a.7723.7723,0,0,1-.1885-.5141,2.0207,2.0207,0,0,1,.0527-.5572.8217.8217,0,0,1,.3194-.4043,3.8337,3.8337,0,0,1,.4668-.2866c.13-.0678.3037-.1479.5185-.2392q.1509-.063.6357-.2593v.9341c-.0126,0-.1171.0341-.3154.102q-.3692.126-.5869.22c-.2109.0894-.3164.1558-.3164.2a1.4783,1.4783,0,0,0,.2676.3062q.3646.3692.6133.6753a5.7425,5.7425,0,0,1,.665,1.0083Z"/><path class="cls-3" d="M140.72,84.2392a3.29,3.29,0,0,1-.93-.1611,4.4392,4.4392,0,0,1-.8272-.3335,1.02,1.02,0,0,1-.5381.4472,1.3784,1.3784,0,0,1-.4209.0513h-.7451V83.1757h.7451a1.379,1.379,0,0,0,.5381-.0864.6292.6292,0,0,0,.3535-.3809,2.4879,2.4879,0,0,1,.5488-.82.82.82,0,0,1,.504-.2861q.1918,0,.4746.604a2.8366,2.8366,0,0,1,.2968,1.1777Zm-.7031-1.1856a.665.665,0,0,0-.1621-.2978c-.12-.1572-.2246-.2358-.3125-.2358q-.1466,0-.248.3535c.1308.0522.23.0913.2968.1176a2.2056,2.2056,0,0,0,.3428.1177C139.9881,83.1088,140.0164,83.0908,140.0164,83.0536Z"/><path class="cls-3" d="M142.5242,84.2431h-2.0693V83.1757h1.6182l-.4551-2.665-.2412-.1651a1.69,1.69,0,0,1,.0673-.4668,4.3658,4.3658,0,0,1,.294-.71l.1728.0942c0,.0157-.0048.0577-.0146.1255a.3305.3305,0,0,0,.1572.2515,2.1364,2.1364,0,0,0,.4444.2432,3.7176,3.7176,0,0,1-.1.4907,3.2057,3.2057,0,0,1-.1485.4277l-.1357-.0552.41,2.43Z"/><path class="cls-3" d="M147.2713,84.2431h-.4932a.5248.5248,0,0,1-.248-.0591.8886.8886,0,0,1-.3682-.416,3.2507,3.2507,0,0,1-.2636-1.1382,4.8073,4.8073,0,0,1-.3985.4673.5735.5735,0,0,1-.3467.2.89.89,0,0,1-.18-.0234l-.4589-.0943a3.1084,3.1084,0,0,1-.3614-.09.099.099,0,0,1-.0673-.0982,2.9214,2.9214,0,0,1,.2607-.6694,3.8165,3.8165,0,0,1,.3779-.6963,2.0609,2.0609,0,0,1,.335-.2749c.0957-.0678.23-.1557.4062-.2627l.1993-.122a1.1941,1.1941,0,0,1-.0225-.22,1.4285,1.4285,0,0,1,.0654-.3745,3.4781,3.4781,0,0,1,.2354-.56l.3613,2.4493a2.0636,2.0636,0,0,0,.2256.7807.2834.2834,0,0,0,.248.1338h.4932Zm-.8691-5.5024-.4141.73-.5332-.3139-.3018.62-.6992-.4.3916-.6909.5567.29.3271-.6006Zm-.5938,3.2851-.0752-.4712c-.081.0391-.1435.0708-.1885.0943a2.4337,2.4337,0,0,0-.331.2119,1.6684,1.6684,0,0,0-.15.145.2517.2517,0,0,0-.0752.13c0,.0366.0439.0654.1318.0859a1.11,1.11,0,0,0,.2588.0318.3644.3644,0,0,0,.1738-.0494A2.132,2.132,0,0,0,145.8084,82.0258Z"/><path class="cls-3" d="M149.3621,84.2431h-2.3545V83.1757h1.9785a1.2453,1.2453,0,0,0-.15-.4516,2.8794,2.8794,0,0,0-.2627-.3531l.3007-.9341a1.8856,1.8856,0,0,1,.3858.6988,4.2814,4.2814,0,0,1,.1025,1.083Zm-.06.6909-.3916.7613-.5566-.2906-.3154.6358-.6846-.4.4131-.8.5342.3139.3008-.62Z"/><path class="cls-3" d="M151.4529,84.2431h-2.3545V83.1757h1.9786a1.2473,1.2473,0,0,0-.15-.4516,2.8685,2.8685,0,0,0-.2627-.3531l.3008-.9341a1.8839,1.8839,0,0,1,.3857.6988,4.2768,4.2768,0,0,1,.1025,1.083Zm.0235-4.2739-.4522.8789-.88-.4785.4551-.8872Z"/><path class="cls-3" d="M155.4861,84.2431H151.19V83.1757h.501a1.6353,1.6353,0,0,0,.5078-.3257q.1392-.1062.4024-.33,0-.4827-.0342-.816a6.56,6.56,0,0,0-.1094-.6948q-.019-.0864-.2031-.8515l-.2178-.1416q.0864-.4117.1426-.59c.0381-.1191.11-.3071.2188-.5635l.1728.0708a.6523.6523,0,0,1-.0156.1021c0,.0913.125.2.373.3257q.1245.063.3721.1611a3.3653,3.3653,0,0,1-.12.5728c-.0274.0888-.0781.2275-.15.416l-.1358-.0469q.1173.5574.1563.8218a3.2331,3.2331,0,0,1,.0391.4731v.043c0,.0762-.002.1357-.0049.1787s-.0147.1108-.0323.2022q.1948-.1488.3946-.2984a5.6918,5.6918,0,0,1,.5459-.3608,1.1028,1.1028,0,0,1,.4814-.1807,1.0285,1.0285,0,0,1,.711.2393.9981.9981,0,0,1,.3007.7812Zm-.5234-1.4678c0-.0918-.0928-.1772-.2783-.2573a1.2665,1.2665,0,0,0-.4883-.12,1.201,1.201,0,0,0-.5586.167,7.9385,7.9385,0,0,0-.9014.61h.9854Q154.9637,83.1757,154.9627,82.7753Z"/><path class="cls-3" d="M158.8836,83.9721a2.0821,2.0821,0,0,1-.55,1.3345,1.49,1.49,0,0,1-1.083.66,1.4184,1.4184,0,0,1-.6826-.208,9.9267,9.9267,0,0,1-1.1377-.82l.1582-.228a3.1175,3.1175,0,0,0,.666.377,1.4072,1.4072,0,0,0,1.207-.1333,3.4687,3.4687,0,0,0,.8721-.8086,1.8378,1.8378,0,0,1-.2627.0234.7469.7469,0,0,1-.5928-.2529,1.0158,1.0158,0,0,1-.22-.689,2.6125,2.6125,0,0,1,.26-1.1343q.2813-.5925.6425-.5923c.2012,0,.3711.1426.5118.4278a2.3136,2.3136,0,0,1,.2109,1.0322Zm-.4512-.7964c-.07-.4214-.2138-.6318-.4287-.6318a.2171.2171,0,0,0-.1865.0962.3458.3458,0,0,0-.0693.21.2694.2694,0,0,0,.1484.2334.7338.7338,0,0,0,.3926.0923Z"/><path class="cls-3" d="M160.6893,84.2431H158.62V83.1757h1.6182l-.4551-2.665-.2412-.1651a1.69,1.69,0,0,1,.0674-.4668,4.3552,4.3552,0,0,1,.2939-.71l.1729.0942c0,.0157-.0049.0577-.0147.1255a.33.33,0,0,0,.1573.2515,2.1351,2.1351,0,0,0,.4443.2432,3.7176,3.7176,0,0,1-.1.4907,3.22,3.22,0,0,1-.1484.4277l-.1358-.0552.41,2.43Z"/><path class="cls-3" d="M162.0037,83.101a2.4057,2.4057,0,0,1-.0791.6377,5.3352,5.3352,0,0,1-.3047.7754l-.2256-.0942a4.7938,4.7938,0,0,0,.0909-.8164q0-.24-.0381-.7027t-.0938-.9165q-.0571-.4533-.1845-1.081a1.7924,1.7924,0,0,1-.045-.3023,1.3543,1.3543,0,0,1,.1162-.4141c.0782-.1948.1866-.4311.3272-.7084l.2256,1.3891q.1245.7932.1738,1.374Q162.0032,82.6892,162.0037,83.101Z"/><path class="cls-3" d="M167.0291,84.2431h-.4932a.5248.5248,0,0,1-.248-.0591.8886.8886,0,0,1-.3682-.416,3.2507,3.2507,0,0,1-.2636-1.1382,4.7931,4.7931,0,0,1-.3985.4673.5732.5732,0,0,1-.3467.2.8881.8881,0,0,1-.18-.0234l-.459-.0943a3.1084,3.1084,0,0,1-.3614-.09.099.099,0,0,1-.0673-.0982,2.9214,2.9214,0,0,1,.2607-.6694,3.8165,3.8165,0,0,1,.3779-.6963,2.0609,2.0609,0,0,1,.335-.2749c.0957-.0678.23-.1557.4062-.2627l.1993-.122a1.1941,1.1941,0,0,1-.0225-.22,1.4285,1.4285,0,0,1,.0654-.3745,3.4781,3.4781,0,0,1,.2354-.56l.3613,2.4493a2.0636,2.0636,0,0,0,.2256.7807.2834.2834,0,0,0,.248.1338h.4932Zm-.8691-5.5024-.4141.73-.5332-.3139-.3018.62-.6992-.4.3916-.6909.5567.29.3271-.6006Zm-.5938,3.2851-.0752-.4712c-.081.0391-.1435.0708-.1885.0943a2.44,2.44,0,0,0-.331.2119,1.6684,1.6684,0,0,0-.15.145.2517.2517,0,0,0-.0752.13c0,.0366.044.0654.1318.0859a1.11,1.11,0,0,0,.2588.0318.3651.3651,0,0,0,.1739-.0494A2.1409,2.1409,0,0,0,165.5662,82.0258Z"/><path class="cls-3" d="M168.8348,84.2431h-2.0694V83.1757h1.6182l-.4551-2.665-.2412-.1651a1.69,1.69,0,0,1,.0674-.4668,4.3552,4.3552,0,0,1,.2939-.71l.1729.0942c0,.0157-.0049.0577-.0147.1255a.33.33,0,0,0,.1573.2515,2.1351,2.1351,0,0,0,.4443.2432,3.7176,3.7176,0,0,1-.1.4907,3.2061,3.2061,0,0,1-.1484.4277l-.1358-.0552.41,2.43Z"/><path class="cls-3" d="M170.5633,84.2431h-.5264a.6631.6631,0,0,1-.6357-.377,3.2375,3.2375,0,0,1-.2188-1.4008V81.3466a1.0134,1.0134,0,0,0-.3271-.8867l.4062-.9814a2.0884,2.0884,0,0,1,.3047.62,3.4151,3.4151,0,0,1,.1016.9106v.773a4.1334,4.1334,0,0,0,.1055,1.1381q.0819.2558.2636.2554h.5264Z"/><path class="cls-3" d="M173.3377,84.2431h-3.0391V83.1757H172.74a3.5456,3.5456,0,0,0-.2861-.3218c-.0752-.0732-.1767-.1626-.3047-.267q-.2139-.173-.4248-.3453l-.12.1412q-.3354-.345-.3984-.42a.7723.7723,0,0,1-.1885-.5141,2.0207,2.0207,0,0,1,.0527-.5572.8217.8217,0,0,1,.3194-.4043,3.8337,3.8337,0,0,1,.4668-.2866c.13-.0678.3037-.1479.5185-.2392q.1509-.063.6358-.2593v.9341c-.0127,0-.1172.0341-.3155.102q-.3691.126-.5869.22c-.2109.0894-.3164.1558-.3164.2a1.4783,1.4783,0,0,0,.2676.3062q.3647.3692.6133.6753a5.7425,5.7425,0,0,1,.665,1.0083Z"/><path class="cls-3" d="M176.7371,83.9721a2.0821,2.0821,0,0,1-.55,1.3345,1.49,1.49,0,0,1-1.083.66,1.4187,1.4187,0,0,1-.6826-.208,9.9267,9.9267,0,0,1-1.1377-.82l.1582-.228a3.1175,3.1175,0,0,0,.666.377,1.4072,1.4072,0,0,0,1.207-.1333,3.4687,3.4687,0,0,0,.8721-.8086,1.8378,1.8378,0,0,1-.2627.0234.7469.7469,0,0,1-.5928-.2529,1.0163,1.0163,0,0,1-.22-.689,2.6125,2.6125,0,0,1,.26-1.1343q.2813-.5925.6426-.5923c.2011,0,.3711.1426.5117.4278a2.3136,2.3136,0,0,1,.2109,1.0322Zm-.4512-.7964c-.07-.4214-.2138-.6318-.4287-.6318a.2171.2171,0,0,0-.1865.0962.3458.3458,0,0,0-.0693.21.2694.2694,0,0,0,.1484.2334.7338.7338,0,0,0,.3926.0923Z"/><path class="cls-3" d="M178.5428,84.2431h-2.0694V83.1757h1.6182l-.4551-2.665-.2412-.1651a1.69,1.69,0,0,1,.0674-.4668,4.3642,4.3642,0,0,1,.2939-.71l.1729.0942c0,.0157-.0049.0577-.0146.1255a.33.33,0,0,0,.1572.2515,2.1378,2.1378,0,0,0,.4443.2432,3.6856,3.6856,0,0,1-.1.4907,3.192,3.192,0,0,1-.1484.4277l-.1358-.0552.41,2.43Z"/><path class="cls-3" d="M179.8572,83.101a2.4057,2.4057,0,0,1-.0791.6377,5.3352,5.3352,0,0,1-.3047.7754l-.2255-.0942a4.8023,4.8023,0,0,0,.0908-.8164q0-.24-.0381-.7027t-.0938-.9165q-.057-.4533-.1845-1.081a1.7889,1.7889,0,0,1-.0449-.3023,1.3514,1.3514,0,0,1,.1162-.4141c.0781-.1948.1865-.4311.3271-.7084l.2256,1.3891q.1245.7932.1738,1.374Q179.8567,82.6892,179.8572,83.101Z"/><path class="cls-1" d="M98.5359,95.7416V90.3954h2.7764v5.2632c0,1.6538.7012,2.315,1.8652,2.315,1.15,0,1.8506-.6612,1.8506-2.315V90.3954h2.7344v5.3462c0,2.8794-1.71,4.4917-4.6133,4.4917S98.5359,98.621,98.5359,95.7416Z"/><path class="cls-1" d="M116.4354,98.1664H112.284l-.7705,1.8741h-2.833l4.333-9.6451h2.7344l4.3476,9.6451h-2.89Zm-.8135-2.0117L114.36,93.0683l-1.2627,3.0864Z"/><path class="cls-1" d="M129.1873,97.9326v2.1079h-7.8808V90.3954h7.6982v2.108h-4.9492v1.6259h4.36v2.04h-4.36v1.7637Z"/><path class="cls-2" d="M144.9979,90.3954v9.6451h-2.2862l-4.333-5.14v5.14H135.658V90.3954h2.2861l4.3331,5.1392V90.3954Z"/><path class="cls-2" d="M153.9647,98.1664h-4.1514l-.77,1.8741H146.21l4.333-9.6451h2.7344l4.3476,9.6451h-2.89Zm-.8135-2.0117L151.89,93.0683l-1.2627,3.0864Z"/><path class="cls-2" d="M158.8358,90.3954h4.6416c3.2529,0,5.4834,1.86,5.4834,4.8223s-2.2305,4.8228-5.4834,4.8228h-4.6416Zm4.5292,7.4678a2.6493,2.6493,0,1,0,0-5.291h-1.7529v5.291Z"/><path class="cls-2" d="M177.282,98.1664h-4.1513l-.77,1.8741h-2.833l4.333-9.6451h2.7343l4.3467,9.6451h-2.8887Zm-.8134-2.0117-1.2618-3.0864-1.2627,3.0864Z"/></svg>